<?xml version="1.0" encoding="utf-8"?>
<!-- Generator: Adobe Illustrator 27.5.0, SVG Export Plug-In . SVG Version: 6.00 Build 0)  -->
<svg version="1.1" xmlns="http://www.w3.org/2000/svg" xmlns:xlink="http://www.w3.org/1999/xlink" x="0px" y="0px"
	 viewBox="0 0 799.92 799.92" style="enable-background:new 0 0 799.92 799.92;" xml:space="preserve">
<g id="Background">
	<rect style="fill-rule:evenodd;clip-rule:evenodd;fill:#FFFFFF;" width="799.92" height="799.92"/>
</g>
<g id="Objects">
	<g>
		<g>
			<g>
				<path style="fill-rule:evenodd;clip-rule:evenodd;" d="M304.121,776.012c0.324-0.001,0.621-0.088,0.889-0.256
					c0.272-0.171,0.487-0.432,0.65-0.784c0.16-0.354,0.239-0.793,0.239-1.318c0-0.499-0.08-0.924-0.239-1.278
					c-0.163-0.358-0.381-0.634-0.656-0.818c-0.27-0.188-0.564-0.279-0.883-0.283v-1.342c0.302,0.043,0.57,0.123,0.805,0.239
					c0.369,0.184,0.727,0.469,1.077,0.85v-2.748c0-0.382,0.076-0.67,0.23-0.866c0.151-0.198,0.369-0.292,0.649-0.292
					c0.283,0,0.501,0.089,0.652,0.271c0.154,0.178,0.23,0.442,0.23,0.792v8.209c0,0.354-0.082,0.621-0.245,0.797
					c-0.165,0.178-0.378,0.266-0.637,0.266c-0.254,0-0.464-0.089-0.629-0.274c-0.166-0.183-0.25-0.447-0.25-0.788v-0.185
					c-0.25,0.288-0.496,0.519-0.739,0.698c-0.243,0.181-0.505,0.316-0.792,0.41c-0.113,0.037-0.23,0.066-0.351,0.089V776.012z
					 M302.342,773.653c0,0.503,0.078,0.933,0.235,1.287c0.157,0.356,0.373,0.62,0.644,0.8c0.272,0.182,0.57,0.271,0.894,0.271h0.006
					v1.387c-0.184,0.033-0.377,0.05-0.578,0.05c-0.446,0-0.859-0.093-1.237-0.281c-0.379-0.188-0.709-0.458-0.986-0.809
					c-0.278-0.347-0.488-0.761-0.631-1.234c-0.144-0.472-0.215-0.983-0.215-1.534c0-1.162,0.284-2.069,0.853-2.721
					c0.568-0.648,1.316-0.974,2.243-0.974c0.195,0,0.379,0.012,0.552,0.036v1.342h-0.02c-0.341,0-0.646,0.095-0.914,0.287
					c-0.267,0.193-0.475,0.474-0.622,0.835C302.415,772.754,302.342,773.176,302.342,773.653z"/>
				<path style="fill-rule:evenodd;clip-rule:evenodd;" d="M312.873,773.065h1.686c-0.044-0.636-0.216-1.112-0.516-1.427
					c-0.296-0.316-0.688-0.474-1.171-0.475v-1.295h0.058c0.728,0,1.351,0.15,1.869,0.461c0.523,0.306,0.912,0.701,1.173,1.188
					c0.259,0.485,0.386,0.983,0.386,1.487c0,0.465-0.135,0.772-0.402,0.91c-0.269,0.139-0.644,0.208-1.131,0.208h-1.952V773.065
					L312.873,773.065z M312.873,777.445v-1.236c0.046,0.004,0.092,0.006,0.14,0.006c0.222,0,0.425-0.025,0.61-0.077
					c0.184-0.05,0.359-0.136,0.534-0.247c0.174-0.111,0.333-0.23,0.478-0.357c0.145-0.127,0.332-0.3,0.565-0.517
					c0.096-0.083,0.232-0.126,0.409-0.126c0.191,0,0.345,0.055,0.464,0.158c0.118,0.104,0.178,0.253,0.178,0.442
					c0,0.169-0.066,0.363-0.197,0.592c-0.133,0.224-0.331,0.44-0.598,0.647c-0.264,0.207-0.598,0.376-1.002,0.517
					c-0.402,0.134-0.864,0.201-1.388,0.201C313,777.448,312.935,777.447,312.873,777.445z M311.186,773.065h1.687v1.058h-1.687
					c0.003,0.423,0.088,0.793,0.254,1.116c0.166,0.325,0.386,0.567,0.664,0.729c0.235,0.143,0.491,0.222,0.769,0.241v1.236
					c-1.103-0.035-1.967-0.376-2.595-1.019c-0.664-0.682-0.996-1.606-0.996-2.773c0-0.552,0.082-1.063,0.246-1.533
					c0.165-0.469,0.403-0.874,0.716-1.211c0.314-0.334,0.699-0.591,1.16-0.773c0.442-0.173,0.933-0.262,1.469-0.268v1.295h-0.005
					c-0.462,0-0.845,0.157-1.14,0.478C311.429,771.963,311.248,772.438,311.186,773.065z"/>
				<path style="fill-rule:evenodd;clip-rule:evenodd;" d="M323.92,775.017c0,0.511-0.125,0.951-0.375,1.315
					c-0.251,0.369-0.62,0.648-1.108,0.835c-0.488,0.188-1.083,0.281-1.782,0.281c-0.669,0-1.242-0.101-1.719-0.306
					c-0.479-0.203-0.829-0.463-1.058-0.766c-0.226-0.308-0.341-0.616-0.341-0.926c0-0.204,0.072-0.379,0.218-0.523
					c0.147-0.146,0.329-0.221,0.554-0.221c0.194,0,0.344,0.05,0.45,0.146c0.103,0.092,0.204,0.228,0.3,0.399
					c0.19,0.332,0.418,0.58,0.684,0.741c0.267,0.166,0.63,0.247,1.089,0.247c0.372,0,0.677-0.083,0.917-0.247
					c0.238-0.167,0.357-0.356,0.357-0.568c0-0.328-0.125-0.568-0.371-0.719c-0.248-0.148-0.656-0.294-1.226-0.429
					c-0.639-0.159-1.162-0.323-1.563-0.501c-0.401-0.175-0.722-0.404-0.964-0.69c-0.241-0.289-0.362-0.639-0.362-1.058
					c0-0.371,0.11-0.726,0.334-1.061c0.222-0.329,0.551-0.591,0.984-0.79c0.435-0.199,0.959-0.296,1.57-0.296
					c0.483,0,0.915,0.048,1.299,0.148c0.385,0.101,0.705,0.234,0.963,0.405c0.257,0.166,0.452,0.352,0.585,0.558
					c0.134,0.204,0.202,0.403,0.202,0.6c0,0.214-0.072,0.39-0.215,0.524c-0.142,0.134-0.347,0.204-0.61,0.204
					c-0.191,0-0.354-0.054-0.488-0.161c-0.133-0.108-0.287-0.273-0.46-0.492c-0.14-0.182-0.306-0.33-0.496-0.438
					c-0.192-0.108-0.451-0.165-0.779-0.165c-0.336,0-0.614,0.076-0.837,0.22c-0.223,0.141-0.335,0.319-0.335,0.529
					c0,0.199,0.082,0.358,0.247,0.482c0.164,0.127,0.382,0.231,0.661,0.313c0.276,0.08,0.659,0.18,1.145,0.299
					c0.578,0.142,1.049,0.307,1.415,0.503c0.367,0.196,0.642,0.426,0.831,0.693C323.827,774.371,323.92,774.675,323.92,775.017z"/>
				<path style="fill-rule:evenodd;clip-rule:evenodd;" d="M327.355,770.936v5.382c0,0.372-0.088,0.653-0.265,0.845
					c-0.176,0.192-0.402,0.285-0.674,0.285c-0.273,0-0.496-0.095-0.665-0.292c-0.171-0.195-0.254-0.477-0.254-0.838v-5.325
					c0-0.367,0.083-0.647,0.254-0.83c0.17-0.188,0.392-0.28,0.665-0.28c0.272,0,0.498,0.093,0.674,0.28
					C327.267,770.346,327.355,770.605,327.355,770.936L327.355,770.936z M326.436,769.017c-0.26,0-0.481-0.083-0.664-0.238
					c-0.185-0.159-0.276-0.386-0.276-0.676c0-0.264,0.094-0.482,0.283-0.651c0.188-0.173,0.406-0.257,0.658-0.257
					c0.239,0,0.454,0.076,0.64,0.231c0.186,0.158,0.279,0.382,0.279,0.678c0,0.286-0.091,0.509-0.271,0.673
					C326.902,768.933,326.685,769.017,326.436,769.017z"/>
				<path style="fill-rule:evenodd;clip-rule:evenodd;" d="M332.521,775.894c0.303-0.003,0.59-0.086,0.858-0.248
					c0.275-0.169,0.5-0.416,0.671-0.751c0.175-0.334,0.26-0.739,0.26-1.215c0-0.762-0.167-1.352-0.502-1.773
					c-0.327-0.417-0.757-0.626-1.288-0.634v-1.331c0.286,0.049,0.547,0.133,0.781,0.255c0.386,0.201,0.744,0.521,1.079,0.951v-0.252
					c0-0.321,0.078-0.572,0.238-0.748c0.158-0.179,0.362-0.266,0.611-0.266c0.36,0,0.598,0.119,0.717,0.351
					c0.118,0.231,0.177,0.567,0.177,1.013v5.406c0,0.615-0.064,1.149-0.198,1.595c-0.13,0.447-0.341,0.812-0.633,1.104
					c-0.29,0.289-0.671,0.509-1.142,0.648c-0.443,0.13-0.986,0.2-1.629,0.209v-1.296c0.408-0.014,0.73-0.079,0.968-0.199
					c0.267-0.132,0.452-0.32,0.56-0.562c0.107-0.243,0.166-0.501,0.186-0.772c0.018-0.275,0.034-0.718,0.044-1.327
					c-0.289,0.396-0.619,0.704-0.996,0.912c-0.227,0.127-0.481,0.216-0.762,0.266V775.894z M330.731,773.606
					c0,0.752,0.164,1.324,0.495,1.71c0.33,0.384,0.755,0.578,1.278,0.578h0.017v1.336c-0.181,0.032-0.373,0.048-0.576,0.048
					c-0.622,0-1.167-0.158-1.634-0.479c-0.466-0.314-0.823-0.762-1.072-1.336c-0.251-0.572-0.376-1.233-0.376-1.985
					c0-0.555,0.077-1.06,0.228-1.509c0.153-0.451,0.369-0.832,0.65-1.141c0.283-0.311,0.608-0.541,0.977-0.699
					c0.367-0.153,0.772-0.233,1.213-0.233c0.207,0,0.404,0.016,0.589,0.047v1.331h-0.031c-0.532,0-0.959,0.2-1.278,0.606
					C330.891,772.283,330.731,772.856,330.731,773.606L330.731,773.606z M332.521,778.913v1.296l-0.126,0.001
					c-0.64,0-1.215-0.09-1.719-0.27s-0.893-0.413-1.167-0.694c-0.271-0.287-0.407-0.575-0.407-0.878c0-0.228,0.077-0.41,0.231-0.552
					c0.154-0.148,0.339-0.218,0.558-0.218c0.273,0,0.512,0.12,0.717,0.36c0.1,0.123,0.202,0.249,0.31,0.373
					c0.108,0.122,0.225,0.231,0.355,0.321c0.128,0.089,0.285,0.153,0.466,0.196c0.181,0.043,0.391,0.065,0.627,0.065
					L332.521,778.913z"/>
				<path style="fill-rule:evenodd;clip-rule:evenodd;" d="M339.697,770.909v0.227c0.327-0.434,0.685-0.751,1.074-0.95
					c0.387-0.202,0.834-0.304,1.339-0.304c0.49,0,0.93,0.106,1.316,0.316c0.384,0.215,0.674,0.52,0.866,0.909
					c0.122,0.227,0.201,0.475,0.237,0.735c0.037,0.266,0.056,0.601,0.056,1.008v3.467c0,0.372-0.085,0.653-0.255,0.845
					c-0.171,0.192-0.394,0.285-0.665,0.285c-0.278,0-0.502-0.095-0.675-0.292c-0.172-0.195-0.259-0.477-0.259-0.838v-3.103
					c0-0.611-0.085-1.084-0.255-1.409c-0.17-0.324-0.511-0.487-1.021-0.487c-0.332,0-0.634,0.101-0.906,0.297
					c-0.273,0.194-0.473,0.468-0.6,0.814c-0.09,0.281-0.137,0.8-0.137,1.556v2.333c0,0.375-0.088,0.661-0.262,0.849
					c-0.175,0.188-0.402,0.281-0.679,0.281c-0.267,0-0.488-0.095-0.661-0.292c-0.173-0.195-0.258-0.477-0.258-0.838v-5.382
					c0-0.354,0.077-0.618,0.232-0.793c0.154-0.174,0.365-0.261,0.633-0.261c0.163,0,0.312,0.036,0.443,0.113
					c0.131,0.078,0.238,0.193,0.317,0.35C339.657,770.499,339.697,770.688,339.697,770.909z"/>
				<path style="fill-rule:evenodd;clip-rule:evenodd;" d="M349.682,773.065h1.688c-0.046-0.636-0.218-1.112-0.516-1.427
					c-0.296-0.316-0.688-0.474-1.171-0.475v-1.295h0.059c0.726,0,1.35,0.15,1.87,0.461c0.52,0.306,0.911,0.701,1.17,1.188
					c0.258,0.485,0.388,0.983,0.388,1.487c0,0.465-0.134,0.772-0.402,0.91c-0.268,0.139-0.643,0.208-1.132,0.208h-1.953V773.065
					L349.682,773.065z M349.682,777.445v-1.236c0.046,0.004,0.092,0.006,0.139,0.006c0.223,0,0.425-0.025,0.61-0.077
					c0.185-0.05,0.361-0.136,0.537-0.247c0.172-0.111,0.332-0.23,0.476-0.357c0.146-0.127,0.335-0.3,0.565-0.517
					c0.097-0.083,0.233-0.126,0.409-0.126c0.192,0,0.345,0.055,0.463,0.158c0.119,0.104,0.179,0.253,0.179,0.442
					c0,0.169-0.065,0.363-0.199,0.592c-0.131,0.224-0.33,0.44-0.597,0.647c-0.263,0.207-0.598,0.376-1.001,0.517
					c-0.401,0.134-0.866,0.201-1.388,0.201C349.81,777.448,349.746,777.447,349.682,777.445z M347.994,773.065h1.688v1.058h-1.688
					c0.004,0.423,0.088,0.793,0.254,1.116c0.167,0.325,0.387,0.567,0.661,0.729c0.237,0.143,0.494,0.222,0.772,0.241v1.236
					c-1.102-0.035-1.966-0.376-2.596-1.019c-0.662-0.682-0.995-1.606-0.995-2.773c0-0.552,0.085-1.063,0.246-1.533
					c0.163-0.469,0.402-0.874,0.717-1.211c0.314-0.334,0.698-0.591,1.158-0.773c0.444-0.173,0.932-0.262,1.47-0.268v1.295h-0.004
					c-0.463,0-0.845,0.157-1.142,0.478C348.239,771.963,348.058,772.438,347.994,773.065z"/>
				<path style="fill-rule:evenodd;clip-rule:evenodd;" d="M357.956,776.012c0.325-0.001,0.62-0.088,0.89-0.256
					c0.268-0.171,0.485-0.432,0.647-0.784c0.161-0.354,0.242-0.793,0.242-1.318c0-0.499-0.081-0.924-0.242-1.278
					c-0.163-0.358-0.38-0.634-0.655-0.818c-0.268-0.188-0.563-0.279-0.882-0.283v-1.342c0.302,0.043,0.57,0.123,0.802,0.239
					c0.369,0.184,0.727,0.469,1.078,0.85v-2.748c0-0.382,0.076-0.67,0.229-0.866c0.152-0.198,0.369-0.292,0.652-0.292
					c0.281,0,0.497,0.089,0.65,0.271c0.152,0.178,0.228,0.442,0.228,0.792v8.209c0,0.354-0.081,0.621-0.245,0.797
					c-0.164,0.178-0.376,0.266-0.633,0.266c-0.256,0-0.466-0.089-0.632-0.274c-0.166-0.183-0.249-0.447-0.249-0.788v-0.185
					c-0.251,0.288-0.496,0.519-0.741,0.698c-0.243,0.181-0.507,0.316-0.789,0.41c-0.113,0.037-0.23,0.067-0.351,0.089V776.012z
					 M356.176,773.653c0,0.503,0.079,0.933,0.235,1.287c0.157,0.356,0.372,0.62,0.644,0.8c0.273,0.182,0.571,0.271,0.892,0.271
					h0.009v1.387c-0.184,0.033-0.377,0.05-0.58,0.05c-0.445,0-0.859-0.093-1.239-0.281c-0.378-0.188-0.707-0.458-0.984-0.809
					c-0.278-0.347-0.487-0.761-0.63-1.234c-0.144-0.472-0.215-0.983-0.215-1.534c0-1.162,0.282-2.069,0.853-2.721
					c0.569-0.648,1.316-0.974,2.244-0.974c0.195,0,0.38,0.013,0.553,0.036v1.342h-0.023c-0.339,0-0.644,0.095-0.912,0.287
					c-0.269,0.193-0.476,0.474-0.625,0.835C356.248,772.754,356.176,773.176,356.176,773.653z"/>
				<path style="fill-rule:evenodd;clip-rule:evenodd;" d="M370.54,776.011l0.061,0.001c0.468,0,0.872-0.205,1.21-0.611
					c0.34-0.407,0.507-0.989,0.507-1.747c0-0.495-0.069-0.913-0.21-1.271c-0.141-0.352-0.342-0.628-0.601-0.821
					c-0.257-0.192-0.561-0.287-0.907-0.287l-0.061,0.001v-1.341c0.173-0.025,0.357-0.038,0.553-0.038
					c0.618,0,1.159,0.148,1.625,0.439c0.466,0.291,0.828,0.716,1.083,1.276c0.258,0.553,0.386,1.215,0.386,1.979
					c0,0.566-0.071,1.082-0.215,1.551c-0.143,0.47-0.352,0.88-0.624,1.224c-0.272,0.345-0.603,0.615-0.992,0.803
					c-0.388,0.188-0.816,0.281-1.284,0.281c-0.185,0-0.362-0.015-0.533-0.042V776.011z M368.761,773.705
					c0,0.742,0.169,1.312,0.507,1.709c0.327,0.383,0.75,0.582,1.272,0.597v1.396c-0.094-0.016-0.186-0.035-0.276-0.059
					c-0.251-0.069-0.467-0.159-0.644-0.272c-0.177-0.109-0.328-0.224-0.456-0.344c-0.123-0.117-0.288-0.295-0.491-0.531v0.185
					c0,0.351-0.083,0.614-0.254,0.797c-0.167,0.178-0.38,0.266-0.64,0.266c-0.263,0-0.474-0.088-0.631-0.266
					c-0.157-0.183-0.236-0.446-0.236-0.797l0.001-8.13c0-0.373,0.077-0.658,0.228-0.853c0.154-0.195,0.364-0.289,0.638-0.289
					c0.287,0,0.506,0.091,0.662,0.277c0.154,0.184,0.232,0.445,0.232,0.785v2.844c0.349-0.365,0.706-0.643,1.069-0.834
					c0.232-0.124,0.497-0.208,0.798-0.253v1.341c-0.329,0.01-0.624,0.106-0.885,0.286c-0.277,0.193-0.498,0.474-0.656,0.841
					C368.839,772.769,368.761,773.201,368.761,773.705z"/>
				<path style="fill-rule:evenodd;clip-rule:evenodd;" d="M377.215,777.682l0.171-0.416l-2.292-5.768
					c-0.14-0.334-0.211-0.575-0.211-0.721c0-0.158,0.042-0.313,0.125-0.447c0.081-0.137,0.192-0.244,0.336-0.325
					c0.142-0.083,0.292-0.122,0.447-0.122c0.269,0,0.47,0.084,0.606,0.254c0.136,0.17,0.259,0.414,0.362,0.732l1.576,4.582
					l1.491-4.261c0.119-0.347,0.228-0.615,0.321-0.811c0.095-0.196,0.198-0.327,0.305-0.394c0.105-0.07,0.256-0.103,0.452-0.103
					c0.141,0,0.276,0.036,0.405,0.113c0.131,0.073,0.229,0.175,0.299,0.302c0.071,0.127,0.107,0.261,0.107,0.401
					c-0.017,0.083-0.048,0.208-0.087,0.366c-0.042,0.162-0.092,0.326-0.152,0.487l-2.427,6.352
					c-0.209,0.563-0.413,0.998-0.614,1.314c-0.198,0.321-0.462,0.565-0.793,0.734c-0.331,0.172-0.774,0.257-1.332,0.257
					c-0.545,0-0.955-0.061-1.228-0.177c-0.272-0.117-0.409-0.333-0.409-0.647c0-0.215,0.064-0.379,0.194-0.496
					c0.13-0.119,0.321-0.175,0.578-0.175c0.098,0,0.197,0.015,0.293,0.043c0.118,0.026,0.22,0.038,0.307,0.038
					c0.214,0,0.381-0.03,0.503-0.096c0.124-0.058,0.234-0.172,0.331-0.328C376.975,778.217,377.088,777.985,377.215,777.682z"/>
			</g>
			<g>
				<path style="fill-rule:evenodd;clip-rule:evenodd;" d="M419.08,767.525h0.555v-0.698c0-0.727,0.093-1.305,0.279-1.729
					c0.179-0.429,0.493-0.742,0.934-0.937c0.44-0.197,1.041-0.294,1.811-0.294c1.351,0,2.032,0.331,2.032,0.995
					c0,0.212-0.074,0.396-0.216,0.553c-0.141,0.153-0.307,0.232-0.503,0.232c-0.09,0-0.247-0.016-0.468-0.053
					c-0.22-0.033-0.405-0.051-0.561-0.051c-0.421,0-0.689,0.124-0.807,0.369c-0.12,0.248-0.181,0.601-0.181,1.057v0.557h0.57
					c0.887,0,1.329,0.268,1.329,0.8c0,0.378-0.118,0.621-0.353,0.722c-0.237,0.102-0.56,0.158-0.977,0.158h-0.57v6.148
					c0,0.458-0.112,0.809-0.326,1.053c-0.218,0.241-0.501,0.357-0.85,0.357c-0.326,0-0.602-0.116-0.819-0.357
					c-0.218-0.244-0.327-0.595-0.327-1.053v-6.148h-0.639c-0.346,0-0.609-0.081-0.8-0.241c-0.186-0.154-0.282-0.355-0.282-0.604
					C417.914,767.803,418.306,767.525,419.08,767.525z"/>
				<path style="fill-rule:evenodd;clip-rule:evenodd;" d="M427.378,773.411v1.942c0,0.468-0.109,0.825-0.331,1.06
					c-0.222,0.234-0.5,0.35-0.845,0.35c-0.329,0-0.607-0.116-0.822-0.356c-0.216-0.238-0.325-0.589-0.325-1.054v-6.466
					c0-1.047,0.376-1.565,1.13-1.565c0.386,0,0.665,0.121,0.836,0.364c0.173,0.241,0.264,0.604,0.281,1.08
					c0.278-0.476,0.563-0.839,0.854-1.08c0.293-0.243,0.683-0.364,1.171-0.364c0.486,0,0.961,0.121,1.42,0.364
					c0.462,0.241,0.688,0.567,0.688,0.967c0,0.288-0.095,0.52-0.293,0.705c-0.197,0.184-0.403,0.274-0.636,0.274
					c-0.083,0-0.288-0.051-0.614-0.152c-0.326-0.109-0.613-0.162-0.866-0.162c-0.338,0-0.617,0.093-0.831,0.273
					c-0.216,0.175-0.384,0.44-0.504,0.792c-0.117,0.352-0.199,0.771-0.246,1.257C427.399,772.124,427.378,772.715,427.378,773.411z"
					/>
				<path style="fill-rule:evenodd;clip-rule:evenodd;" d="M436.315,771.294h2.106c-0.061-0.793-0.271-1.388-0.642-1.78
					c-0.371-0.394-0.86-0.592-1.465-0.593v-1.615h0.074c0.906,0,1.682,0.188,2.33,0.575c0.651,0.381,1.139,0.875,1.463,1.482
					c0.321,0.605,0.485,1.227,0.485,1.856c0,0.58-0.167,0.964-0.503,1.137c-0.334,0.172-0.803,0.258-1.413,0.258h-2.437V771.294
					L436.315,771.294z M436.315,776.76v-1.542c0.058,0.004,0.116,0.006,0.175,0.006c0.278,0,0.531-0.03,0.762-0.096
					c0.227-0.061,0.454-0.169,0.665-0.309c0.218-0.138,0.417-0.287,0.6-0.445c0.18-0.159,0.418-0.374,0.702-0.644
					c0.121-0.104,0.295-0.157,0.514-0.157c0.236,0,0.43,0.067,0.577,0.197c0.146,0.129,0.22,0.316,0.22,0.552
					c0,0.211-0.079,0.454-0.245,0.738c-0.167,0.28-0.413,0.551-0.74,0.809c-0.334,0.258-0.752,0.469-1.255,0.644
					c-0.503,0.168-1.078,0.252-1.732,0.252C436.477,776.764,436.395,776.762,436.315,776.76z M434.21,771.294h2.105v1.319h-2.105
					c0.009,0.528,0.112,0.99,0.318,1.393c0.207,0.405,0.478,0.708,0.829,0.909c0.292,0.179,0.612,0.277,0.958,0.302v1.542
					c-1.377-0.044-2.457-0.469-3.235-1.272c-0.829-0.85-1.245-2.003-1.245-3.459c0-0.688,0.103-1.326,0.309-1.913
					c0.203-0.586,0.501-1.092,0.891-1.512c0.391-0.416,0.875-0.738,1.45-0.964c0.549-0.216,1.16-0.326,1.831-0.334v1.615h-0.004
					c-0.578,0-1.055,0.197-1.429,0.597C434.514,769.918,434.289,770.511,434.21,771.294z"/>
				<path style="fill-rule:evenodd;clip-rule:evenodd;" d="M446.669,771.294h2.104c-0.059-0.793-0.271-1.388-0.639-1.78
					c-0.373-0.394-0.858-0.592-1.466-0.593v-1.615h0.07c0.911,0,1.689,0.188,2.338,0.575c0.647,0.381,1.138,0.875,1.461,1.482
					c0.323,0.605,0.483,1.227,0.483,1.856c0,0.58-0.17,0.964-0.503,1.137c-0.332,0.172-0.801,0.258-1.411,0.258h-2.439V771.294
					L446.669,771.294z M446.669,776.76v-1.542c0.058,0.004,0.115,0.006,0.175,0.006c0.278,0,0.529-0.03,0.759-0.096
					c0.233-0.061,0.456-0.169,0.668-0.309c0.218-0.138,0.417-0.287,0.599-0.445c0.183-0.159,0.42-0.374,0.708-0.644
					c0.119-0.104,0.283-0.157,0.508-0.157c0.24,0,0.434,0.067,0.58,0.197c0.145,0.129,0.22,0.316,0.22,0.552
					c0,0.211-0.081,0.454-0.243,0.738c-0.167,0.28-0.417,0.551-0.749,0.809c-0.331,0.258-0.747,0.469-1.248,0.644
					c-0.506,0.168-1.081,0.252-1.732,0.252C446.83,776.764,446.749,776.762,446.669,776.76z M444.564,771.294h2.104v1.319h-2.104
					c0.006,0.528,0.113,0.99,0.318,1.393c0.207,0.405,0.482,0.708,0.825,0.909c0.296,0.179,0.615,0.277,0.961,0.302v1.542
					c-1.374-0.044-2.453-0.47-3.236-1.272c-0.829-0.85-1.241-2.003-1.241-3.459c0-0.688,0.104-1.326,0.301-1.913
					c0.209-0.586,0.506-1.092,0.897-1.512c0.388-0.416,0.872-0.738,1.448-0.964c0.554-0.216,1.165-0.327,1.831-0.334v1.615h-0.005
					c-0.579,0-1.053,0.197-1.424,0.597C444.87,769.918,444.64,770.511,444.564,771.294z"/>
				<path style="fill-rule:evenodd;clip-rule:evenodd;" d="M459.44,772.001c0-0.614-0.089-1.139-0.278-1.579
					c-0.188-0.44-0.444-0.78-0.777-1.011c-0.33-0.238-0.698-0.354-1.101-0.354l-0.063,0.001v-1.669
					c0.202-0.034,0.413-0.051,0.632-0.051c0.715,0,1.371,0.185,1.975,0.552c0.603,0.371,1.077,0.908,1.427,1.617
					c0.346,0.706,0.521,1.545,0.521,2.521c0,0.712-0.102,1.367-0.301,1.968c-0.202,0.596-0.477,1.102-0.829,1.505
					c-0.353,0.403-0.766,0.721-1.244,0.938c-0.48,0.218-0.998,0.324-1.548,0.324c-0.223,0-0.433-0.015-0.632-0.045v-1.748h0.063
					c0.388,0,0.743-0.111,1.071-0.339c0.329-0.224,0.593-0.555,0.79-1.006C459.341,773.178,459.44,772.636,459.44,772.001z
					 M457.221,769.059c-0.611,0.017-1.133,0.266-1.557,0.756c-0.441,0.504-0.663,1.247-0.663,2.23c0,0.922,0.22,1.639,0.659,2.153
					c0.419,0.499,0.94,0.756,1.561,0.773v1.748c-0.393-0.059-0.74-0.178-1.038-0.355c-0.453-0.265-0.882-0.652-1.291-1.173v3.488
					c0,1.022-0.374,1.531-1.111,1.531c-0.439,0-0.727-0.132-0.871-0.396c-0.142-0.262-0.21-0.649-0.21-1.153v-10.023
					c0-0.441,0.098-0.771,0.286-0.989c0.194-0.216,0.458-0.325,0.795-0.325c0.327,0,0.595,0.109,0.802,0.334
					c0.207,0.225,0.31,0.547,0.31,0.964v0.281c0.441-0.536,0.893-0.935,1.364-1.186c0.296-0.159,0.618-0.268,0.965-0.326V769.059z"
					/>
				<path style="fill-rule:evenodd;clip-rule:evenodd;" d="M465.962,768.637v6.717c0,0.465-0.113,0.815-0.333,1.054
					c-0.221,0.24-0.499,0.356-0.843,0.356c-0.34,0-0.613-0.119-0.829-0.364c-0.213-0.245-0.317-0.595-0.317-1.046v-6.644
					c0-0.458,0.104-0.809,0.317-1.036c0.216-0.235,0.489-0.351,0.829-0.351c0.344,0,0.622,0.115,0.843,0.351
					C465.849,767.9,465.962,768.225,465.962,768.637L465.962,768.637z M464.816,766.242c-0.327,0-0.608-0.104-0.834-0.299
					c-0.227-0.198-0.343-0.479-0.343-0.843c0-0.328,0.118-0.602,0.353-0.813c0.233-0.216,0.509-0.32,0.824-0.32
					c0.296,0,0.565,0.095,0.798,0.287c0.231,0.197,0.348,0.477,0.348,0.846c0,0.357-0.114,0.636-0.341,0.841
					C465.395,766.137,465.124,766.242,464.816,766.242z"/>
				<path style="fill-rule:evenodd;clip-rule:evenodd;" d="M474.147,775.699l-2.054-3.367l-1.261,1.193v1.846
					c0,0.447-0.112,0.791-0.346,1.035c-0.241,0.241-0.512,0.357-0.813,0.357c-0.36,0-0.642-0.116-0.845-0.356
					c-0.206-0.238-0.307-0.589-0.307-1.054v-9.903c0-0.518,0.094-0.911,0.294-1.179c0.203-0.271,0.485-0.404,0.857-0.404
					c0.355,0,0.637,0.117,0.849,0.364c0.208,0.246,0.31,0.604,0.31,1.082v5.633l2.615-2.743c0.325-0.338,0.569-0.57,0.736-0.696
					c0.174-0.124,0.381-0.185,0.623-0.185c0.292,0,0.53,0.088,0.728,0.275c0.188,0.185,0.288,0.414,0.288,0.693
					c0,0.339-0.315,0.796-0.946,1.363l-1.231,1.128l2.379,3.746c0.181,0.277,0.306,0.489,0.379,0.632
					c0.079,0.144,0.114,0.284,0.114,0.411c0,0.373-0.098,0.661-0.303,0.876c-0.2,0.21-0.469,0.316-0.792,0.316
					c-0.285,0-0.505-0.075-0.657-0.227C474.615,776.383,474.407,776.102,474.147,775.699z"/>
				<path style="fill-rule:evenodd;clip-rule:evenodd;" d="M479.889,776.764c-0.351,0-0.653-0.11-0.907-0.341
					c-0.256-0.226-0.389-0.542-0.389-0.955c0-0.342,0.125-0.642,0.367-0.892c0.247-0.248,0.55-0.371,0.904-0.371
					c0.357,0,0.659,0.123,0.914,0.367c0.251,0.247,0.378,0.545,0.378,0.896c0.001,0.407-0.127,0.727-0.378,0.953
					C480.523,776.653,480.229,776.764,479.889,776.764z"/>
				<path style="fill-rule:evenodd;clip-rule:evenodd;" d="M492.135,773.889c0,0.291-0.09,0.598-0.263,0.928
					c-0.173,0.331-0.436,0.642-0.788,0.942c-0.354,0.297-0.803,0.535-1.339,0.715c-0.541,0.184-1.15,0.273-1.824,0.273
					c-1.437,0-2.554-0.42-3.36-1.256c-0.804-0.833-1.21-1.956-1.21-3.36c0-0.959,0.186-1.8,0.556-2.532
					c0.365-0.729,0.902-1.296,1.602-1.692c0.695-0.402,1.529-0.601,2.498-0.601c0.6,0,1.15,0.086,1.654,0.261
					c0.505,0.178,0.927,0.4,1.277,0.685c0.348,0.274,0.615,0.571,0.801,0.886c0.185,0.317,0.274,0.609,0.274,0.881
					c0,0.28-0.103,0.517-0.313,0.708c-0.204,0.192-0.456,0.287-0.75,0.287c-0.194,0-0.357-0.05-0.483-0.148
					c-0.125-0.098-0.27-0.257-0.427-0.481c-0.285-0.43-0.58-0.755-0.89-0.971c-0.308-0.215-0.702-0.319-1.177-0.319
					c-0.687,0-1.239,0.265-1.659,0.803c-0.418,0.535-0.633,1.265-0.633,2.197c0,0.437,0.053,0.84,0.164,1.205
					c0.106,0.364,0.263,0.675,0.469,0.937c0.198,0.255,0.451,0.453,0.738,0.584c0.289,0.136,0.61,0.203,0.953,0.203
					c0.461,0,0.863-0.112,1.195-0.324c0.334-0.218,0.625-0.542,0.882-0.988c0.142-0.262,0.297-0.465,0.461-0.611
					c0.162-0.148,0.363-0.221,0.6-0.221c0.289,0,0.521,0.108,0.708,0.323C492.037,773.418,492.134,773.646,492.135,773.889z"/>
				<path style="fill-rule:evenodd;clip-rule:evenodd;" d="M500.523,772.045c0-0.949-0.213-1.686-0.629-2.213
					c-0.411-0.524-0.964-0.789-1.665-0.793v-1.717c0.702,0.002,1.332,0.117,1.901,0.336c0.571,0.228,1.063,0.549,1.471,0.972
					c0.411,0.423,0.72,0.921,0.93,1.5c0.217,0.579,0.32,1.216,0.32,1.915c0,0.689-0.104,1.327-0.321,1.909
					c-0.218,0.588-0.531,1.089-0.938,1.507c-0.408,0.42-0.893,0.744-1.461,0.972c-0.565,0.22-1.199,0.329-1.901,0.331v-1.729
					c0.701-0.004,1.254-0.267,1.665-0.794C500.31,773.71,500.523,772.977,500.523,772.045z M498.229,769.039l-0.017-0.001
					c-0.451,0-0.852,0.118-1.198,0.352c-0.342,0.238-0.611,0.585-0.802,1.041c-0.184,0.463-0.278,1.001-0.278,1.613
					c0,0.607,0.092,1.135,0.278,1.589c0.184,0.454,0.447,0.8,0.788,1.042c0.345,0.24,0.749,0.359,1.212,0.359l0.017-0.001v1.729
					h-0.017c-0.698,0-1.333-0.11-1.897-0.341c-0.559-0.226-1.044-0.548-1.46-0.972c-0.408-0.424-0.722-0.923-0.929-1.497
					c-0.217-0.576-0.324-1.214-0.324-1.909c0-0.705,0.107-1.349,0.329-1.935c0.211-0.582,0.522-1.083,0.92-1.497
					c0.404-0.412,0.893-0.732,1.464-0.957c0.576-0.225,1.206-0.334,1.897-0.334h0.017V769.039z"/>
				<path style="fill-rule:evenodd;clip-rule:evenodd;" d="M512.408,772.214v3.086c0,0.488-0.111,0.854-0.333,1.1
					c-0.219,0.245-0.513,0.364-0.878,0.364c-0.35,0-0.636-0.119-0.854-0.364c-0.219-0.245-0.329-0.611-0.329-1.1v-3.7
					c0-0.587-0.021-1.032-0.059-1.359c-0.04-0.325-0.147-0.591-0.324-0.796c-0.174-0.209-0.453-0.308-0.833-0.308
					c-0.759,0-1.259,0.258-1.498,0.778c-0.241,0.523-0.361,1.271-0.361,2.247v3.138c0,0.483-0.113,0.846-0.334,1.094
					c-0.213,0.247-0.503,0.37-0.86,0.37c-0.35,0-0.637-0.123-0.864-0.37c-0.225-0.248-0.336-0.61-0.336-1.094v-6.647
					c0-0.434,0.102-0.767,0.302-0.995c0.203-0.221,0.469-0.336,0.796-0.336c0.317,0,0.585,0.105,0.795,0.317
					c0.215,0.213,0.319,0.509,0.319,0.882v0.221c0.405-0.481,0.835-0.836,1.294-1.065c0.461-0.223,0.971-0.338,1.53-0.338
					c0.587,0,1.088,0.115,1.505,0.348c0.421,0.232,0.771,0.585,1.04,1.056c0.392-0.475,0.813-0.831,1.26-1.06
					c0.446-0.228,0.944-0.344,1.491-0.344c0.633,0,1.181,0.126,1.639,0.371c0.46,0.257,0.801,0.61,1.027,1.072
					c0.203,0.423,0.301,1.084,0.301,1.985v4.532c0,0.488-0.115,0.854-0.335,1.1c-0.216,0.245-0.507,0.364-0.874,0.364
					c-0.348,0-0.639-0.123-0.861-0.37c-0.227-0.248-0.337-0.61-0.337-1.094v-3.904c0-0.496-0.02-0.898-0.062-1.202
					c-0.047-0.297-0.158-0.552-0.347-0.753c-0.185-0.205-0.472-0.304-0.852-0.304c-0.307,0-0.594,0.089-0.87,0.27
					c-0.272,0.18-0.489,0.426-0.645,0.732C512.492,770.528,512.408,771.219,512.408,772.214z"/>
				<path style="fill-rule:evenodd;clip-rule:evenodd;" d="M400.779,761.334c-0.047-0.151-0.097-0.298-0.145-0.446
					c0.778-0.072,1.304-1.008,0.922-1.7c-0.185-0.415-0.611-0.637-1.04-0.646h-0.05c-0.361,0.006-0.717,0.164-0.926,0.485
					c-0.497,0.631-0.11,1.632,0.652,1.838c0.045,0.155,0.091,0.317,0.14,0.482c-1.17,0.075-2.363,0.338-3.345,1.006
					c0.101,0.277,0.203,0.565,0.302,0.853c1.98-0.869,4.2-0.682,6.288-0.473c0.068-0.275,0.138-0.553,0.209-0.827
					C402.843,761.48,401.807,761.324,400.779,761.334z"/>
				<path style="fill-rule:evenodd;clip-rule:evenodd;" d="M412.552,764.527c-0.312,0.161-0.373,0.538-0.353,0.852
					c-0.351,0.34-0.185,0.851-0.222,1.275c-0.079,0.237-0.364,0.265-0.563,0.353c-0.272-0.414-0.563-0.815-0.931-1.156l0.004-0.02
					c-0.4-0.374-0.83-0.715-1.287-1.012c-0.364,0.394-0.749,0.778-1.1,1.188c0.695,0.767,1.34,1.589,1.909,2.454
					c0.393,0.661,0.708,1.361,0.979,2.079c0.589-0.301,1.17-0.615,1.761-0.929c-0.312-0.715-0.664-1.417-1.044-2.106
					c0.262-0.14,0.61-0.274,0.651-0.615c0.03-0.377-0.055-0.784,0.171-1.113c0.455,0.298,1.147-0.036,1.153-0.591
					C413.742,764.615,413.022,764.205,412.552,764.527z"/>
				<path style="fill-rule:evenodd;clip-rule:evenodd;" d="M407.936,769.289c-0.14,0.957-1.05,1.766-2.026,1.707v3.836
					c1.794-0.482,3.526-1.189,5.129-2.131c0,0-0.338-1.866-1.668-3.902c-0.767-1.272-1.598-2.538-2.726-3.518
					c-0.233-0.206-0.479-0.399-0.735-0.578v2.217c0.246,0.006,0.492,0.052,0.729,0.109
					C407.535,767.346,408.121,768.357,407.936,769.289z M405.91,770.996h-0.008c-0.565,0.047-1.11-0.221-1.495-0.621
					c-0.275-0.342-0.504-0.736-0.541-1.186c-0.134-0.972,0.552-1.977,1.503-2.204c0.178-0.052,0.359-0.07,0.541-0.066v-2.217
					c-1.176-0.82-2.578-1.339-4.019-1.333c-1.776-0.021-3.57,0.204-5.262,0.751v2.107c0.313,0.001,0.626,0.044,0.928,0.129
					c0.342,0.087,0.656,0.245,0.949,0.442c0.604,0.427,1.059,1.059,1.26,1.773c0.282,0.918,0.102,1.945-0.432,2.738
					c-0.386,0.559-0.937,0.99-1.57,1.236c-0.362,0.135-0.749,0.201-1.135,0.2v2.845l0.09,0.005c2.077,0.063,4.17,0.115,6.232-0.177
					c0.997-0.131,1.986-0.326,2.959-0.588V770.996z M396.629,764.12v2.107c-0.535-0.002-1.069,0.121-1.541,0.377
					c-0.982,0.523-1.674,1.565-1.72,2.685c-0.065,0.897,0.291,1.787,0.89,2.448c0.599,0.661,1.485,1.01,2.372,1.01v2.845
					c-2.076-0.107-4.122-0.557-6.135-1.06c-0.368-1.864-0.378-3.882,0.439-5.635c0.848-1.949,2.522-3.459,4.45-4.308
					C395.792,764.412,396.207,764.256,396.629,764.12z"/>
				<path style="fill-rule:evenodd;clip-rule:evenodd;" d="M390.959,765.957c-0.83,0.501-1.511,1.206-2.08,1.984
					c-0.167-0.309-0.217-0.676-0.434-0.952c-0.124-0.165-0.345-0.098-0.518-0.101c-0.221,0.024-0.434-0.036-0.642-0.099
					c0.242-0.343,0.179-0.865-0.194-1.088c-0.396-0.287-1.011-0.038-1.116,0.435c-0.167,0.518,0.385,1.036,0.893,0.901
					c0.269,0.399,0.755,0.334,1.171,0.349c0.186,0.323,0.329,0.679,0.567,0.973c-0.445,0.876-0.696,1.857-0.715,2.843
					c0.571,0.237,1.14,0.482,1.715,0.72c0.028-0.624,0.099-1.239,0.194-1.846c0.192-1.334,0.963-2.493,1.877-3.448
					C391.45,766.39,391.197,766.183,390.959,765.957z"/>
				<path style="fill-rule:evenodd;clip-rule:evenodd;" d="M404.308,776.003c-2.104,0.46-4.275,0.595-6.427,0.501
					c-1.454-0.074-2.908-0.21-4.331-0.524c-1.006-0.204-1.993-0.495-2.984-0.779c0.159,1.265,0.67,2.477,1.401,3.519
					c0.862,1.213,2.014,2.326,3.45,2.775c1.05,0.281,2.291,0.638,4.336,0.648h0.207l0.212-0.002
					c1.903-0.033,3.773-0.275,5.442-0.985c1.076-0.463,2.086-1.095,2.954-1.884c0.748-0.706,1.336-1.586,1.741-2.531
					c0.392-0.893,0.744-2.5,0.706-3.321C408.956,774.591,406.653,775.61,404.308,776.003z"/>
			</g>
		</g>
		<g>
			<path style="fill-rule:evenodd;clip-rule:evenodd;" d="M557.021,699.887c-4.356-8.468-8.868-10.808-12.277-18.498
				c-9.353-21.097-13.687-49.627-18.638-63.188c-6.259-17.144-8.544-30.219,3.467-23.464c12.01,6.756-16.514-20.267-9.008-20.267
				c7.507,0-10.508-30.776-1.501-29.274c9.008,1.502-12.01-26.272,0.751-18.015c12.761,8.257-1.502-36.028,6.005-30.024
				c7.506,6.005-1.501-22.518,3.003-19.517c4.503,3.003-6.006-13.511,1.501-11.259c7.506,2.252-0.751-24.771,5.254-18.015
				c6.005,6.755,6.756-32.277,11.26-22.519c4.504,9.758-8.257-36.03,0.751-30.025c9.007,6.006-9.008-37.531,0.75-33.027
				c9.758,4.505-9.008-18.765,1.501-15.762c10.509,3.002-8.256-18.016,1.502-18.016c9.757,0,9.877-21.435,16.334-24.71
				c6.458-3.276,10.126-9.604,18.826-6.752c10.579,3.468,31.677,12.208,47.468,10.639c19.214-1.909,45.35-39.389,28.201-50.35
				c-13.293-8.496,0.83-28.622-12.682-43.635c-13.511-15.013-11.828-18.802-14.83-12.797c-3.002,6.005-11.259-21.017-11.259-14.262
				c0,6.756-17.265-12.761-18.015-6.756c-0.751,6.005-8.247-10.675-8.247-3.919c0,2.898-0.482,2.111-1.112-0.14
				c0.046-14.224-9.787-38.563-19.663-38.816c-9.759-0.25-24.094,23.98-25.3,36.064c-16.233,1.667-22.291-13.846-22.368-6.576
				c-0.055,5.145-13.018,16.645-15.171,9.327c-2.151-7.316-9.469,21.951-9.899,9.9c-0.43-12.051-18.076,35.724-17.215,17.646
				c0.86-18.077-13.342,21.949-14.634,8.178c-1.291-13.772-1.291-12.912-4.304,0.86c-3.013,13.773-6.025,25.394-6.025,6.456
				s6.887-30.559,0-24.103c-6.887,6.456-12.052,24.104-11.621,8.608c0.431-15.494,4.305-40.027,0.431-27.546
				c-3.874,12.483-8.178,20.66-8.178,9.9c0-10.76,0.001-30.559-3.013-18.507c-3.014,12.052-12.912,16.355-12.912,4.734
				c0-11.62,5.596-30.988,0-21.95c-5.595,9.038-12.481,28.406-12.481,15.925c0-12.481,2.152-28.837,0-22.811
				c-2.152,6.026-11.19,24.963-11.621,14.203c-0.43-10.76,0.431-32.709-1.721-21.089c-2.152,11.62-9.038,19.798-10.76,10.76
				c-1.722-9.038-6.456-23.672-7.317-17.216c-0.861,6.456,1.722,32.279-4.734,20.658c-6.456-11.62-17.646-31.419-16.786-21.52
				c0.861,9.899,4.735,30.989-4.303,21.09c-9.039-9.899-19.368-30.988-19.368-16.785c0,14.203,6.457,30.127-2.152,21.089
				s-28.407-29.696-21.951-17.216c6.456,12.481,16.786,33.142,6.456,24.103c-10.33-9.038-28.836-28.406-22.381-14.634
				c6.456,13.773,19.368,40.457,2.583,27.545c-16.786-12.911-26.685-31.418-22.38-17.215c4.304,14.203,16.785,29.696,6.886,22.811
				c-9.898-6.887-21.519-12.911-15.494-7.316c6.025,5.596,10.071,18.271,0.937,11.747c-9.134-6.524-24.142-19.574-15.659-7.829
				c8.482,11.744,13.049,25.446,5.873,19.574c-7.177-5.873-21.532-10.439-15.659-2.61c5.872,7.83,5.219,21.531-2.61,16.964
				c-7.829-4.566-13.702-9.786-9.135-2.609c4.568,7.177,5.873,22.184-0.652,13.702c-6.525-8.482-7.83-24.142-8.482-14.354
				c-0.653,9.787-1.305,28.056-4.567,18.269c-3.262-9.787-6.525-30.013-6.525-13.701c0,16.311,8.482,33.928,0,23.488
				c-8.482-10.439-13.049-23.488-11.744-13.049c1.305,10.439,6.525,32.622,0,24.141s-14.355-18.921-9.135-9.134
				c5.22,9.787,12.397,24.142,3.915,18.269c-8.482-5.872-20.88-22.185-16.964-11.092c3.915,11.092,17.616,19.574,8.482,16.311
				c-9.134-3.263-26.751-16.964-18.269-7.829c8.482,9.134,25.446,24.142,15.659,21.531c-9.787-2.61-15.659-0.652-7.83,1.957
				c7.83,2.61,19.575,14.354,9.135,15.659c-10.439,1.305-22.184,12.396-11.092,9.787c11.092-2.61,14.863,3.354,1.305,12.396
				c-13.559,9.043-18.005,19.166-5.21,14.375c12.795-4.79,18.26,9.767,4.558,12.377c-13.702,2.609-37.191,5.871-20.227,7.177
				c16.964,1.305,27.403,7.829,15.659,7.829c-11.744,0-33.928,7.177-16.311,7.177c17.616,0,27.403,11.093,15.006,11.093
				c-12.396,0-23.489,7.829-11.092,7.829c12.397,0,20.227,11.745,8.482,11.745c-11.745,0-18.921,4.567-7.177,7.829
				c11.744,3.263,13.702,7.83,2.61,7.83c-11.092,0-9.136,7.177,0.652,7.177c9.788,0,6.261,2.691,1.051,5.143
				c-5.209,2.452-15.935,13.483-7.661,9.193c8.274-4.289,15.016-2.451,7.968,2.759c-7.048,5.21-12.257,13.79-4.29,11.339
				c7.967-2.452,7.661,10.725-1.226,15.628c-8.887,4.904-11.645,4.597-4.904,7.355c6.742,2.758,7.048,12.87,0,11.338
				c-7.048-1.532-20.532,2.452-10.113,2.452c10.419,0,18.999,5.822,8.887,5.822c-10.113,0-19,3.066-9.807,4.597
				c9.193,1.532,10.419,5.822,3.065,5.822c-7.355,0-15.016,2.452-5.516,4.291c9.5,1.838,7.662,6.435,0.307,5.209
				c-7.355-1.226-4.904-0.307,1.838,4.903c6.742,5.21-1.226,8.888-4.597,7.049c-3.371-1.839-7.049-4.291-3.065,1.225
				c3.984,5.517,6.742,18.694,0,14.098c-6.742-4.598-6.435-5.822-4.596,2.451c1.839,8.274-0.307,15.935-6.129,12.87
				c-5.822-3.063-4.902-3.983-2.451,3.678c2.451,7.661,2.451,14.097-3.064,13.177c-5.516-0.919-9.194,2.759-3.065,3.371
				c6.129,0.613-4.291,8.274-7.967,10.113c-3.677,1.839-8.887,3.983,0,3.983c8.887,0,3.371-1.839,1.838,2.759
				c-1.532,4.597-2.757,9.192,1.533,5.209c4.29-3.983,7.967-0.612,7.048,5.517c-0.919,6.129,3.678,7.661,4.597,2.758
				c0.919-4.903,6.435-5.516,11.338-0.307c4.903,5.21,2.452,1.532,0.919-4.29c-1.532-5.822,0.614-13.79,7.049-7.661
				c6.435,6.128,3.063,0.919,1.225-4.598c-1.838-5.516-4.903-15.016,2.452-7.048c7.354,7.968,10.418,9.5,6.742,1.227
				c-3.677-8.274-4.904-19.612,0.613-12.871c5.517,6.742,7.049,3.371,3.678-2.451c-3.371-5.823,1.225-14.403,5.516-9.193
				c4.291,5.209,7.355,4.902,3.372-1.839c-3.984-6.742,2.758-16.549,7.967-10.113c5.21,6.436,5.516,3.371,1.532-5.822
				c-3.984-9.193-1.839-18.693,5.822-14.71c7.661,3.984,11.339,7.049,6.436-4.902c-4.903-11.952-0.307-19.92,3.984-13.484
				c4.291,6.435,6.436,7.968,2.452-5.209c-3.984-13.177-8.887-21.759,0.307-19.307c9.193,2.452,15.628-1.838,7.048-3.677
				c-8.58-1.839-5.823-9.807-0.613-9.807c5.21,0,14.709-4.903,7.967-5.517c-6.741-0.612-13.177-2.145-7.661-6.434
				c5.516-4.29,11.953-9.5,4.904-9.193c-7.049,0.306-5.517-15.322,1.225-8.888c6.743,6.436,8.888,6.742,4.597-1.226
				c-4.291-7.968,5.822-19.612-0.613-17.161c-6.436,2.452-8.58-1.838-5.822-5.209c2.757-3.371,8.273-9.193,2.757-8.887
				c-5.516,0.307-11.338-6.13-5.516-6.742c5.822-0.613,7.967-3.371,3.983-5.822c-3.983-2.452-10.419-13.791-4.29-10.727
				c6.129,3.065,6.129-0.919,2.452-7.967c-3.678-7.049,7.355-17.468,6.742-6.129c-0.613,11.339-1.531,21.45,1.532,16.241
				c3.064-5.209,7.661,1.838,3.371,6.129c-4.29,4.291-7.967,13.177-2.145,8.887c5.822-4.29,7.354,1.84,3.677,7.662
				c-3.677,5.822-7.662,9.5-1.839,5.516c5.823-3.984,9.807-2.145,6.129,7.048c-3.677,9.193-10.419,14.098-2.452,12.871
				c7.968-1.226,12.258,11.031,4.903,20.531c-7.354,9.5-8.273,14.097-1.838,8.275c6.435-5.822,1.839,14.71-0.613,25.742
				c-2.452,11.031-3.677,12.258-0.306,7.355c3.371-4.903,13.79-0.307,11.032,12.258c-2.758,12.564-7.661,23.289-3.371,17.774
				c4.29-5.516,1.532,13.791-0.613,22.064c-2.145,8.274-3.983,15.016,0.92,9.5c4.903-5.516,7.822-0.123,2.883,9.26
				c-4.939,9.382-4.444,14.32-0.987,29.135c3.456,14.813,13.333,51.354,16.789,67.157c3.457,15.802,1.976,34.073,12.839,39.999
				s17.777,4.938,17.777,4.938s15.307,6.42,19.752,1.482c4.445-4.938,18.271,2.963,18.271-16.79
				c0-19.752-4.938-17.283-11.357-20.246c-6.42-2.964-18.271-18.765-13.826-18.271c4.444,0.494,2.962,2.964-1.482-3.456
				c-4.444-6.42-1.805-9.854,1.682-7.114c3.487,2.739-0.499-0.001-4.235-6.477c-3.736-6.476-5.979-9.465-1.495-8.22
				c4.484,1.245,3.239-1.245-1.245-4.981c-4.484-3.736-8.719-8.718-4.235-7.971c4.484,0.747,3.985,1.743,0.747-3.238
				c-3.238-4.981-6.726-15.941-2.74-14.447c3.986,1.495,2.989,4.484,0.748-3.736c-2.242-8.22-4.981-19.18-0.997-14.945
				c3.986,4.234,4.483,9.714,1.993-0.997c-2.491-10.71-4.483-16.439-0.747-14.945c3.736,1.495,2.74,0.498,0.996-3.985
				c-1.744-4.482-3.238-14.197-1.245-11.457c1.992,2.739,1.744,2.242,1.744-3.736s-3.986-10.213,0.249-9.715
				c4.235,0.498,2.242,0,0.498-5.232c-1.743-5.231-1.494-10.71,2.491-9.964c3.985,0.747,4.483-0.746,1.246-2.241
				c-3.238-1.494-4.733-12.205,0.249-9.964c4.981,2.242,5.729,9.714,2.74-1.744c-2.989-11.457-0.498-21.92,0-17.684
				c0.499,4.234,2.74,5.23,2.491-5.232c-0.25-10.461,4.732-23.165,3.736-15.194c-0.996,7.971-2.988,14.697-0.498,11.209
				c2.491-3.487,3.486,11.707,0.498,14.696c-2.988,2.989-4.483,10.213-1.743,7.474c2.74-2.74-0.248,11.955-2.491,15.193
				c-2.242,3.238-4.483,5.729-1.245,4.733c3.238-0.996,2.242,11.956-1.495,13.201c-3.737,1.246-6.975,7.473-3.488,5.48
				c3.488-1.992,3.487,2.989,1.246,8.719c-2.242,5.729-4.483,9.215-1.744,7.223c2.74-1.992,4.732,9.216,3.736,13.7
				c-0.996,4.483-1.495,6.477,0.498,5.979c1.993-0.499,1.495,11.956,2.989,14.945c1.495,2.989,17.442,30.622,25.28,40.304
				c7.837,9.682,23.973,31.119,24.895,35.268c0.922,4.148,8.298,6.223,12.447,11.295c4.149,5.07,27.201,5.531,37.804,3.457
				c10.604-2.074,19.363-5.531,20.055-14.291c0.691-8.76-5.071-11.986-7.837-11.986c-2.767,0,1.152-5.533-6.455-8.529
				s-7.147,0.461-16.366,0.461c-9.22,0-8.989-4.609-11.064-7.607c-2.075-2.997,3.458-2.766-1.614-5.532
				c-5.071-2.767-10.372-8.99-7.146-8.99c3.227,0,3.457-0.23-2.305-2.996c-5.763-2.767-8.299-5.763-4.149-5.763
				s1.844-0.692-2.766-3.689c-4.61-2.996-8.989-9.221-5.762-9.221c3.227,0,10.833,1.614,3.227-1.844
				c-7.606-3.458-12.216-9.451-6.915-9.451c5.302,0,6.684,0.001,0.691-3.227c-5.993-3.227-10.604-12.909-5.302-9.912
				c5.302,2.997,5.994,5.071,2.536-1.844c-3.458-6.916-5.532-13.139-2.074-10.143c3.458,2.996,6.224,7.376,4.379,0.922
				c-1.844-6.454-4.84-18.21-2.074-13.831c2.766,4.38,10.372,5.763,5.071,0.23c-5.302-5.532-7.606-13.369-0.691-9.911
				c6.915,3.457,8.068,1.613,3.919-1.845c-4.15-3.457-4.61-17.057-1.153-12.908c3.457,4.149,8.067,7.838,5.993,1.152
				c-2.074-6.685-9.451-19.132-1.844-14.521c7.607,4.61,7.607,2.535,4.611-1.845c-2.997-4.38-5.994-11.525-1.614-9.911
				c4.379,1.613,11.295,0.229,6.224-2.767c-5.071-2.996-10.373-6.224-4.61-6.224c5.762,0,7.375-2.305,4.148-3.689
				c-3.227-1.383-8.529-5.992-2.536-5.531c5.993,0.46,11.525-0.922,7.146-2.767c-4.38-1.845-9.682-6.455-4.61-6.455
				c5.071,0,13.14-0.921,8.299-3.227c-4.841-2.305-10.604-5.532-3.689-5.532s14.062,0,8.99-1.613
				c-5.071-1.613-7.837-8.299-2.536-7.377c5.302,0.922,9.22-0.921,4.148-3.227c-5.07-2.306-5.993-15.905-0.23-12.217
				c5.763,3.688,7.146,7.607,5.763,0.691c-1.383-6.915,0-23.974,4.149-15.444c4.149,8.529,3.227,17.749,3.919,12.218
				c0.692-5.532,7.606-17.058,6.685-6.455c-0.922,10.604-3.919,17.519,0,12.908c3.919-4.609,9.45-11.294,8.989-2.996
				c-0.46,8.298-2.765,13.14,1.845,8.068c4.61-5.072,9.451-4.381,7.606,1.151c-1.844,5.532-6.224,13.601-0.23,8.068
				c5.994-5.532,15.444-5.302,11.064-1.383c-4.38,3.918-7.837,9.911-3.227,7.607c4.61-2.305,11.987-5.301,9.682,0.23
				c-2.306,5.532-6.915,7.837-2.767,6.915c4.149-0.922,10.834,3.458,6.454,5.993c-4.379,2.536-5.762,4.841-0.229,5.302
				c5.531,0.462,8.297,13.37,2.534,13.37c-5.763,0-2.996,3.689,0.462,3.919c3.457,0.229,4.148,12.678,0.23,14.291
				c-3.919,1.614-4.841,0.922,1.383,4.38c6.224,3.458,5.417,10.802,2.087,10.468c-3.33-0.333-7.992,0.999-0.666,2.331
				c7.325,1.332,9.989,7.658,5.66,6.993c-4.328-0.666-5.327,1.998-0.665,5.661c4.662,3.662,11.987,18.315,6.992,14.652
				c-4.994-3.664-5.661,4.329-0.333,7.326c5.328,2.996,15.318,14.317,9.657,13.652c-5.66-0.666-4.994,0,0.333,4.328
				c5.328,4.329,10.655,17.983,5.994,16.984c-4.662-1-9.991,4.661,0,4.328c9.99-0.333,8.991,13.652,4.329,13.986
				c-4.662,0.333-4.662,2.331,0.666,3.663c5.328,1.332,5.661,10.323,2.997,13.32c-2.664,2.996,6.993,9.656,3.996,16.982
				c-2.997,7.325-1.999,18.315,2.663,26.64c4.662,8.325,13.986,20.313,16.983,26.973c2.997,6.66,7.992,7.992,12.987,5.994
				c4.995-1.998,4.329,6.992,15.983,6.992c11.655,0,12.654-3.328,18.315-1.664C553.261,718.23,559.604,704.323,557.021,699.887z"/>
			<path style="fill-rule:evenodd;clip-rule:evenodd;fill:#FFFFFF;" d="M624.341,236.057c4.197-0.542,17.632-3.541,17.742,12.558
				C635.16,255.552,620.898,249.891,624.341,236.057z"/>
			<path style="fill-rule:evenodd;clip-rule:evenodd;" d="M636.646,229.683c1.536,0.509,1.369,5.187-0.373,10.448
				c-1.742,5.26-4.4,9.112-5.936,8.604c-1.538-0.509-1.37-5.187,0.372-10.447C632.451,233.026,635.109,229.174,636.646,229.683z"/>
		</g>
	</g>
</g>
</svg>
